<svg id="svg" version="1.1" xmlns="http://www.w3.org/2000/svg" xmlns:xlink="http://www.w3.org/1999/xlink" width="400" height="113.87329591018444" viewBox="0, 0, 400,113.87329591018444"><g id="svgg"><path id="path0" d="M51.325 0.416 C 47.402 0.891,43.397 1.879,40.094 3.186 C 37.538 4.197,34.497 5.694,34.614 5.883 C 34.671 5.976,34.636 6.001,34.536 5.939 C 34.303 5.795,33.293 6.399,33.459 6.583 C 33.527 6.658,33.491 6.667,33.378 6.602 C 33.128 6.458,31.951 7.224,32.126 7.416 C 32.194 7.492,32.158 7.501,32.046 7.436 C 31.784 7.286,30.969 7.815,31.111 8.044 C 31.170 8.140,31.139 8.169,31.043 8.110 C 30.632 7.856,26.610 11.097,23.801 13.943 C 6.628 31.352,6.224 59.608,22.891 77.610 C 24.344 79.179,23.341 79.956,35.297 67.997 C 47.239 56.052,46.386 57.161,44.961 55.434 C 40.165 49.619,40.846 40.538,46.472 35.266 C 46.756 35.000,46.948 34.717,46.898 34.637 C 46.849 34.557,46.870 34.512,46.946 34.537 C 47.178 34.613,49.173 33.229,49.041 33.084 C 48.973 33.008,49.014 33.003,49.132 33.071 C 49.251 33.139,49.513 33.088,49.716 32.957 C 50.359 32.540,52.261 31.845,53.526 31.564 C 54.627 31.319,59.437 31.118,59.231 31.325 C 59.189 31.366,59.734 31.536,60.440 31.703 C 61.146 31.870,62.419 32.335,63.267 32.737 C 64.116 33.139,64.865 33.419,64.932 33.359 C 64.999 33.299,65.008 33.330,64.952 33.428 C 64.853 33.603,65.800 34.279,66.042 34.205 C 66.110 34.184,66.148 34.230,66.125 34.306 C 66.051 34.555,67.119 35.333,67.535 35.333 C 68.080 35.333,89.057 14.404,89.134 13.784 C 89.212 13.161,83.594 8.319,83.128 8.607 C 83.021 8.673,82.997 8.640,83.067 8.526 C 83.180 8.344,82.955 8.252,82.583 8.327 C 82.492 8.346,82.475 8.302,82.547 8.231 C 82.858 7.920,76.406 4.206,75.896 4.401 C 75.760 4.454,75.691 4.428,75.743 4.345 C 75.922 4.055,70.744 2.169,67.750 1.433 C 62.882 0.237,56.211 -0.176,51.325 0.416 M267.667 25.830 C 267.241 26.099,267.294 67.482,267.722 69.000 C 268.915 73.235,271.893 75.503,276.326 75.553 C 277.958 75.571,279.709 75.370,279.591 75.178 C 279.546 75.107,279.683 75.081,279.895 75.122 C 280.731 75.282,280.833 74.907,280.833 71.687 C 280.833 68.014,280.957 68.214,278.632 68.135 C 276.538 68.065,276.157 67.875,275.500 66.575 L 275.083 65.750 275.036 45.927 C 275.003 31.917,274.936 26.041,274.808 25.886 C 274.589 25.622,268.076 25.571,267.667 25.830 M108.905 40.175 C 103.296 41.049,99.333 45.442,99.333 50.785 C 99.333 52.241,99.774 54.389,100.039 54.226 C 100.145 54.160,100.170 54.194,100.099 54.308 C 99.889 54.648,101.021 56.484,102.003 57.393 C 103.574 58.847,105.676 59.805,110.298 61.174 C 116.290 62.948,117.888 64.710,115.689 67.115 C 115.422 67.408,115.237 67.682,115.279 67.724 C 115.321 67.766,115.257 67.792,115.136 67.781 C 115.015 67.771,114.471 67.900,113.926 68.069 C 111.082 68.950,106.024 67.796,103.309 65.647 C 102.202 64.771,102.198 64.774,99.608 68.477 C 98.815 69.610,98.167 70.604,98.167 70.685 C 98.167 70.957,98.843 71.514,99.032 71.397 C 99.142 71.329,99.172 71.357,99.105 71.464 C 98.941 71.730,101.842 73.409,103.780 74.169 C 109.252 76.315,115.957 75.969,119.667 73.348 C 120.171 72.991,120.563 72.612,120.538 72.504 C 120.512 72.397,120.559 72.350,120.641 72.401 C 120.724 72.452,121.181 72.082,121.657 71.578 C 124.118 68.976,124.740 64.006,123.058 60.392 C 122.550 59.302,120.449 57.087,120.063 57.235 C 119.939 57.282,119.855 57.230,119.877 57.119 C 119.899 57.008,119.786 56.927,119.627 56.940 C 119.467 56.952,119.375 56.901,119.421 56.827 C 119.670 56.424,110.640 53.124,110.137 53.435 C 110.033 53.499,109.992 53.481,110.045 53.396 C 110.098 53.310,109.650 52.986,109.051 52.675 C 105.266 50.713,106.876 47.183,111.500 47.304 C 113.882 47.367,114.312 47.400,114.240 47.517 C 114.205 47.572,114.493 47.712,114.878 47.827 C 115.263 47.942,115.945 48.214,116.395 48.431 C 116.844 48.648,117.295 48.777,117.398 48.719 C 117.500 48.661,117.527 48.675,117.459 48.750 C 117.296 48.930,118.386 49.667,118.815 49.667 C 119.203 49.667,122.833 44.838,122.833 44.322 C 122.833 43.710,120.334 42.155,117.836 41.212 C 115.347 40.273,111.297 39.802,108.905 40.175 M182.000 40.088 C 181.862 40.115,181.206 40.225,180.541 40.334 C 179.876 40.442,179.374 40.598,179.425 40.680 C 179.476 40.762,179.412 40.789,179.284 40.740 C 178.702 40.517,175.884 41.878,174.333 43.132 L 173.417 43.873 173.333 42.430 C 173.274 41.398,173.179 40.942,173.000 40.829 C 172.615 40.587,165.946 40.621,165.700 40.867 C 165.488 41.079,165.391 88.521,165.601 89.070 C 165.773 89.517,172.920 89.461,173.161 89.011 C 173.273 88.801,173.333 85.725,173.333 80.174 L 173.333 71.659 174.454 72.583 C 175.070 73.092,175.674 73.469,175.796 73.422 C 175.918 73.375,175.977 73.402,175.929 73.480 C 175.816 73.662,178.103 74.713,179.417 75.082 C 180.766 75.462,184.934 75.609,186.637 75.338 C 188.374 75.061,191.041 74.201,190.895 73.965 C 190.827 73.855,190.858 73.829,190.974 73.900 C 191.214 74.049,193.530 72.850,193.402 72.643 C 193.351 72.560,193.370 72.502,193.446 72.516 C 193.801 72.577,194.009 72.482,193.901 72.308 C 193.831 72.194,193.855 72.160,193.959 72.225 C 194.175 72.358,195.510 71.322,196.768 70.043 C 202.266 64.456,203.185 55.108,198.912 48.237 C 197.482 45.937,193.009 41.936,192.211 42.242 C 192.085 42.290,192.021 42.267,192.069 42.190 C 192.196 41.985,190.572 41.269,190.325 41.422 C 190.192 41.504,190.157 41.484,190.229 41.368 C 190.612 40.748,183.932 39.709,182.000 40.088 M219.750 40.098 C 212.428 41.138,207.285 45.367,205.011 52.214 C 204.805 52.836,204.679 53.459,204.733 53.598 C 204.786 53.737,204.766 53.811,204.688 53.763 C 204.451 53.617,204.167 55.871,204.167 57.892 C 204.167 62.582,205.805 66.677,209.072 70.148 C 210.133 71.275,211.986 72.695,212.213 72.555 C 212.308 72.496,212.336 72.527,212.277 72.623 C 212.133 72.857,215.474 74.540,216.129 74.565 C 216.407 74.575,216.605 74.631,216.569 74.689 C 216.344 75.055,221.299 75.738,222.984 75.572 C 224.746 75.398,226.168 75.136,226.084 75.000 C 226.037 74.926,226.136 74.900,226.304 74.944 C 228.239 75.450,236.333 69.855,236.333 68.011 C 236.333 67.771,234.471 66.332,234.299 66.438 C 234.222 66.486,234.179 66.452,234.204 66.364 C 234.267 66.144,231.486 64.004,231.135 64.002 C 230.979 64.001,230.492 64.418,230.051 64.930 C 229.611 65.441,228.823 66.145,228.301 66.494 C 227.779 66.844,227.381 67.159,227.418 67.196 C 227.454 67.232,227.356 67.273,227.200 67.286 C 227.044 67.299,226.354 67.512,225.667 67.760 C 220.025 69.787,213.110 66.425,212.053 61.141 L 211.958 60.667 225.031 60.667 C 236.048 60.667,238.154 60.630,238.426 60.430 C 239.153 59.900,238.891 54.920,237.991 52.167 C 237.465 50.555,236.369 48.292,236.173 48.413 C 236.077 48.472,236.043 48.415,236.094 48.281 C 236.384 47.527,230.955 42.199,230.306 42.600 C 230.199 42.667,230.160 42.645,230.219 42.551 C 230.815 41.586,222.684 39.681,219.750 40.098 M259.917 40.111 C 256.192 40.419,253.721 41.300,251.777 43.011 L 251.000 43.695 251.000 42.463 C 251.000 40.564,251.200 40.652,247.000 40.705 C 243.714 40.746,243.419 40.774,243.440 41.040 C 243.452 41.199,243.396 41.289,243.315 41.238 C 243.016 41.054,243.130 74.106,243.429 74.405 C 243.831 74.807,250.353 74.795,250.688 74.391 C 250.874 74.167,250.932 72.239,251.000 64.016 C 251.081 54.177,251.093 53.891,251.445 52.921 C 251.644 52.373,251.764 51.856,251.711 51.770 C 251.658 51.685,251.702 51.669,251.808 51.734 C 251.913 51.799,252.000 51.780,252.000 51.690 C 252.000 51.600,252.373 51.119,252.829 50.620 C 253.285 50.121,253.603 49.653,253.537 49.580 C 253.471 49.507,253.493 49.490,253.586 49.543 C 253.804 49.666,255.038 48.927,254.880 48.769 C 254.814 48.703,254.901 48.703,255.074 48.770 C 255.253 48.838,255.347 48.824,255.293 48.737 C 255.241 48.652,255.360 48.570,255.558 48.554 C 255.755 48.538,256.479 48.368,257.166 48.176 C 258.552 47.789,260.713 47.503,262.266 47.501 C 263.837 47.499,263.833 47.509,263.833 43.707 C 263.833 39.653,263.968 39.776,259.917 40.111 M297.745 40.174 C 296.526 40.333,294.910 40.742,293.851 41.160 C 292.154 41.828,290.832 42.530,290.941 42.705 C 291.008 42.815,290.973 42.836,290.849 42.760 C 290.727 42.684,290.161 43.008,289.410 43.583 C 279.077 51.498,280.202 67.058,291.567 73.414 C 292.902 74.160,295.301 75.047,295.701 74.943 C 295.866 74.900,295.964 74.923,295.920 74.995 C 295.697 75.356,299.664 75.698,301.677 75.492 C 304.547 75.198,309.940 73.244,309.564 72.635 C 309.493 72.521,309.524 72.495,309.644 72.569 C 309.758 72.640,310.413 72.242,311.228 71.605 C 320.005 64.752,320.192 51.478,311.613 44.306 C 311.080 43.860,310.562 43.545,310.463 43.607 C 310.361 43.669,310.329 43.641,310.390 43.543 C 310.608 43.190,307.624 41.597,305.333 40.842 C 303.144 40.120,300.161 39.858,297.745 40.174 M335.917 40.176 C 322.961 41.925,316.327 56.806,323.610 67.780 C 324.894 69.713,328.531 73.040,329.027 72.733 C 329.132 72.668,329.173 72.688,329.118 72.777 C 328.985 72.993,329.948 73.552,330.193 73.401 C 330.320 73.322,330.339 73.356,330.248 73.503 C 330.149 73.664,330.189 73.694,330.398 73.614 C 330.555 73.553,330.644 73.569,330.594 73.649 C 330.480 73.833,332.104 74.543,332.692 74.566 C 332.935 74.576,333.105 74.631,333.069 74.689 C 332.960 74.868,335.116 75.337,336.763 75.493 C 338.823 75.688,342.629 75.344,342.407 74.984 C 342.357 74.903,342.425 74.879,342.557 74.930 C 343.077 75.129,346.937 73.637,346.738 73.314 C 346.689 73.235,346.747 73.207,346.866 73.252 C 347.147 73.358,348.541 72.434,348.376 72.252 C 348.307 72.176,348.330 72.159,348.428 72.214 C 348.526 72.270,349.051 71.967,349.594 71.542 C 357.751 65.165,358.506 52.948,351.202 45.532 C 349.637 43.943,347.406 42.270,347.041 42.410 C 346.917 42.457,346.856 42.432,346.905 42.353 C 347.082 42.066,343.921 40.829,341.917 40.401 C 340.435 40.085,337.430 39.972,335.917 40.176 M376.833 40.196 C 374.411 40.541,371.615 41.774,369.741 43.325 L 368.917 44.006 368.868 42.554 C 368.841 41.754,368.738 41.003,368.639 40.884 C 368.306 40.482,361.558 40.579,361.339 40.989 C 361.066 41.499,361.102 88.681,361.375 89.055 C 361.563 89.311,361.945 89.336,365.167 89.295 L 368.750 89.250 368.793 80.458 C 368.817 75.623,368.876 71.667,368.925 71.667 C 368.974 71.667,369.463 72.040,370.012 72.497 C 371.200 73.485,371.609 73.722,371.863 73.565 C 371.970 73.499,372.006 73.522,371.946 73.620 C 371.563 74.240,375.670 75.361,378.679 75.457 C 381.928 75.561,386.960 74.609,386.562 73.965 C 386.494 73.855,386.525 73.829,386.640 73.900 C 386.863 74.038,389.201 72.857,389.083 72.666 C 389.039 72.595,389.106 72.548,389.231 72.560 C 390.253 72.663,393.992 68.668,395.292 66.083 C 401.881 52.988,391.290 38.135,376.833 40.196 M128.200 40.867 C 127.865 41.202,127.919 62.871,128.260 64.667 C 128.876 67.915,130.298 70.587,132.289 72.240 C 133.553 73.289,135.566 74.408,135.935 74.266 C 136.072 74.213,136.142 74.239,136.090 74.323 C 136.038 74.407,136.390 74.589,136.873 74.729 C 141.494 76.065,147.754 75.819,151.479 74.153 C 152.153 73.852,152.615 73.551,152.554 73.453 C 152.494 73.355,152.530 73.332,152.640 73.400 C 152.904 73.563,154.216 72.635,155.436 71.422 C 157.185 69.684,158.432 66.619,158.829 63.083 C 159.058 61.041,159.057 41.418,158.827 40.989 C 158.561 40.490,151.606 40.490,151.339 40.989 C 151.226 41.201,151.165 44.738,151.161 51.281 C 151.154 63.681,151.003 64.726,148.949 66.619 C 147.006 68.410,141.492 68.723,138.772 67.197 C 135.980 65.631,135.668 63.883,135.667 49.825 C 135.667 43.236,135.617 41.017,135.467 40.867 C 135.184 40.584,128.483 40.584,128.200 40.867 M224.728 47.737 C 225.431 47.973,226.323 48.366,226.710 48.611 C 227.098 48.855,227.505 49.056,227.615 49.056 C 227.725 49.056,227.802 49.099,227.786 49.153 C 227.771 49.206,228.143 49.648,228.614 50.135 C 229.499 51.050,230.545 52.845,230.745 53.792 L 230.860 54.333 221.513 54.333 C 214.463 54.333,212.167 54.285,212.167 54.137 C 212.167 54.030,212.444 53.373,212.783 52.679 C 214.913 48.317,220.084 46.178,224.728 47.737 M186.447 47.765 C 186.934 47.892,187.849 48.256,188.480 48.573 C 189.111 48.891,189.680 49.098,189.744 49.034 C 189.808 48.969,189.842 48.992,189.819 49.083 C 189.795 49.175,190.315 49.790,190.973 50.450 C 192.102 51.581,193.500 53.892,193.500 54.626 C 193.500 54.755,193.583 54.802,193.692 54.734 C 193.810 54.661,193.840 54.688,193.769 54.803 C 193.705 54.906,193.742 55.630,193.852 56.412 C 195.006 64.664,186.668 70.741,179.069 67.185 C 178.495 66.916,177.983 66.727,177.930 66.765 C 177.877 66.803,177.867 66.787,177.908 66.731 C 177.949 66.675,177.624 66.346,177.185 65.999 C 172.069 61.955,172.321 53.110,177.659 49.361 C 178.299 48.912,178.791 48.513,178.752 48.475 C 178.714 48.436,178.810 48.398,178.966 48.389 C 179.122 48.380,179.690 48.210,180.228 48.011 C 182.098 47.320,184.390 47.229,186.447 47.765 M302.417 47.700 C 302.875 47.798,303.737 48.107,304.333 48.388 C 304.929 48.669,305.510 48.892,305.623 48.885 C 305.737 48.877,305.789 48.938,305.738 49.019 C 305.655 49.153,305.890 49.237,306.208 49.186 C 306.277 49.176,306.315 49.227,306.292 49.300 C 306.269 49.374,306.536 49.686,306.885 49.993 C 311.522 54.075,311.440 61.250,306.708 65.682 C 306.089 66.262,305.696 66.671,305.833 66.591 C 305.980 66.506,306.027 66.508,305.947 66.596 C 305.871 66.678,305.721 66.751,305.613 66.758 C 305.505 66.764,304.967 66.979,304.417 67.235 C 302.052 68.336,299.055 68.449,296.553 67.532 C 295.804 67.257,295.129 67.081,295.053 67.141 C 294.978 67.201,294.970 67.184,295.035 67.104 C 295.186 66.917,293.822 65.990,293.590 66.122 C 293.495 66.176,293.472 66.159,293.541 66.083 C 293.609 66.008,293.296 65.557,292.846 65.081 C 285.769 57.599,292.397 45.563,302.417 47.700 M340.917 47.772 C 345.318 48.838,348.519 52.873,348.567 57.417 C 348.584 59.002,348.463 60.846,348.349 60.736 C 348.312 60.699,348.110 61.090,347.901 61.604 C 347.217 63.287,345.897 65.045,344.467 66.176 C 344.037 66.517,343.714 66.826,343.751 66.862 C 343.788 66.899,343.690 66.937,343.534 66.946 C 343.378 66.956,342.786 67.161,342.219 67.401 C 339.726 68.458,336.692 68.413,334.138 67.282 C 333.618 67.052,333.137 66.913,333.070 66.973 C 333.002 67.034,332.994 67.001,333.051 66.900 C 333.108 66.799,332.962 66.613,332.726 66.487 C 329.440 64.728,327.336 58.889,328.570 54.953 C 329.325 52.548,332.388 48.684,333.552 48.668 C 333.626 48.667,333.650 48.608,333.605 48.536 C 333.561 48.464,333.650 48.398,333.804 48.389 C 333.958 48.380,334.533 48.206,335.083 48.003 C 336.848 47.350,338.846 47.271,340.917 47.772 M382.125 47.768 C 382.606 47.893,383.516 48.256,384.147 48.573 C 384.777 48.891,385.346 49.098,385.411 49.034 C 385.475 48.969,385.509 48.992,385.485 49.083 C 385.462 49.175,385.964 49.775,386.602 50.417 C 394.003 57.868,387.242 70.084,376.917 67.916 C 368.989 66.252,366.331 55.048,372.640 49.890 C 373.159 49.465,373.563 49.048,373.538 48.963 C 373.512 48.878,373.563 48.852,373.650 48.906 C 373.737 48.960,374.062 48.854,374.373 48.670 C 376.419 47.463,379.548 47.099,382.125 47.768 " stroke="none" fill="#e4040c" fill-rule="evenodd"></path><path id="path1" d="M71.073 32.208 L 70.583 32.750 71.125 32.260 C 71.630 31.804,71.743 31.667,71.615 31.667 C 71.586 31.667,71.342 31.910,71.073 32.208 M56.511 45.906 C 44.809 57.608,45.417 56.875,46.451 58.053 C 52.906 65.405,50.388 77.176,41.474 81.320 C 36.243 83.752,29.290 82.846,25.395 79.224 C 24.869 78.735,24.593 78.596,24.228 78.635 C 23.517 78.712,2.667 99.549,2.667 100.183 C 2.667 101.595,10.807 107.442,16.019 109.773 C 49.987 124.964,86.722 96.378,80.478 59.614 C 79.172 51.929,74.790 42.746,70.004 37.667 C 69.529 37.162,68.875 36.431,68.550 36.042 C 67.499 34.781,68.249 34.167,56.511 45.906 M167.375 89.457 C 167.994 89.489,169.006 89.489,169.625 89.457 C 170.244 89.425,169.737 89.399,168.500 89.399 C 167.262 89.399,166.756 89.425,167.375 89.457 M363.042 89.457 C 363.660 89.489,364.673 89.489,365.292 89.457 C 365.910 89.425,365.404 89.399,364.167 89.399 C 362.929 89.399,362.423 89.425,363.042 89.457 " stroke="none" fill="#4404b4" fill-rule="evenodd"></path><path id="path2" d="" stroke="none" fill="#e80434" fill-rule="evenodd"></path><path id="path3" d="" stroke="none" fill="#e80434" fill-rule="evenodd"></path><path id="path4" d="" stroke="none" fill="#e80434" fill-rule="evenodd"></path><path id="path5" d="" stroke="none" fill="#e80434" fill-rule="evenodd"></path></g></svg>